<?xml version="1.0" encoding="utf-8"?>
<!-- Generator: Adobe Illustrator 23.0.2, SVG Export Plug-In . SVG Version: 6.00 Build 0)  -->
<svg version="1.1" id="Livello_1" xmlns="http://www.w3.org/2000/svg" xmlns:xlink="http://www.w3.org/1999/xlink" x="0px" y="0px"
	 viewBox="0 0 228.7 64.3" style="enable-background:new 0 0 228.7 64.3;" xml:space="preserve">
<style type="text/css">
	.st0{fill:#1D1D1B;}
</style>
<path class="st0" d="M47.8,63.9c0.5,0,0.9,0,1.3,0.1c0.4-1.1,0.8-2.4,1.3-3.8c0.5-1.4,0.9-2.8,1.4-4.2c0.5-1.4,1-2.9,1.5-4.3
	c0.5-1.4,0.9-2.7,1.4-4c0.4-1.2,0.8-2.3,1.2-3.3c0.3-1,0.6-1.8,0.8-2.4h0.1c1.3,3.8,2.5,7.6,3.6,11.2c1.1,3.6,2.3,7.2,3.4,10.7
	c0.4-0.1,0.8-0.1,1.3-0.1c0.5,0,0.9,0,1.3,0.1c0.2-0.6,0.6-1.6,1.1-3c0.5-1.4,1-3,1.6-4.7c0.6-1.8,1.2-3.6,1.9-5.6
	c0.7-1.9,1.3-3.8,1.9-5.5c0.6-1.7,1.1-3.3,1.6-4.6c0.5-1.4,0.9-2.3,1.1-2.9c-0.2,0.1-0.5,0.1-0.7,0.1c-0.2,0-0.4,0.1-0.7,0.1
	c-0.2,0-0.5,0-0.7-0.1c-0.2,0-0.4-0.1-0.7-0.1c-0.1,0.6-0.4,1.4-0.7,2.6c-0.3,1.2-0.7,2.5-1.2,4c-0.4,1.5-0.9,3.1-1.4,4.7
	c-0.5,1.7-1,3.2-1.5,4.7c-0.5,1.5-0.9,2.8-1.3,4c-0.4,1.2-0.6,2.1-0.8,2.6H66c-0.2-0.7-0.5-1.6-0.9-2.8c-0.4-1.2-0.8-2.5-1.3-4
	c-0.5-1.5-1-3-1.5-4.6c-0.5-1.6-1-3.1-1.5-4.6c-0.5-1.5-0.9-2.8-1.2-4c-0.4-1.2-0.6-2.2-0.8-2.8c-0.5,0.1-0.9,0.2-1.3,0.2
	c-0.3,0-0.8-0.1-1.3-0.2c-0.2,0.6-0.4,1.6-0.8,2.7c-0.4,1.2-0.8,2.5-1.2,4c-0.5,1.4-1,3-1.5,4.6c-0.5,1.6-1.1,3.1-1.5,4.6
	c-0.5,1.5-0.9,2.8-1.3,4c-0.4,1.2-0.7,2.2-1,2.9h-0.1c-0.8-2.4-1.5-4.6-2.1-6.6c-0.6-1.9-1.2-3.8-1.7-5.5c-0.5-1.8-1-3.5-1.5-5.2
	s-0.9-3.5-1.4-5.5c-0.3,0.1-0.7,0.1-1,0.1c-0.3,0-0.6,0.1-1,0.1c-0.3,0-0.7,0-1-0.1c-0.3,0-0.6-0.1-1-0.1c0.3,0.7,0.6,1.7,1.1,3.1
	c0.4,1.4,0.9,2.9,1.5,4.7c0.5,1.7,1.1,3.5,1.7,5.5c0.6,1.9,1.2,3.7,1.7,5.5c0.5,1.7,1,3.3,1.4,4.7c0.4,1.4,0.7,2.4,0.9,3
	C46.9,63.9,47.3,63.9,47.8,63.9z M79.3,46v7c0,0.9,0,1.8,0,2.8c0,1,0,2-0.1,3c0,1-0.1,1.9-0.1,2.8c0,0.9-0.1,1.6-0.1,2.2
	c0.6-0.1,1.2-0.1,1.7-0.1c0.6,0,1.1,0,1.7,0.1c-0.1-0.6-0.1-1.3-0.1-2.2c0-0.9-0.1-1.8-0.1-2.8c0-1,0-1.9-0.1-2.9c0-0.9,0-1.8,0-2.5
	c0-2,0.4-3.5,1.2-4.6s2.1-1.7,3.9-1.7c1.3,0,2.3,0.5,3.1,1.5c0.7,1,1.1,2.4,1.1,4.4v2.3c0,1.5,0,2.9-0.1,4.3
	c-0.1,1.4-0.1,2.8-0.2,4.1c0.5-0.1,1-0.1,1.6-0.1c0.6,0,1.1,0,1.6,0.1c0-0.4,0-0.7-0.1-1.1c0-0.4,0-0.8,0-1.2v-2.5
	c0-1.3,0-2.5,0.1-3.7s0.1-2.3,0.1-3.4c0-1.3-0.2-2.4-0.6-3.3c-0.4-0.9-0.9-1.5-1.4-2c-0.6-0.5-1.2-0.9-2-1.1
	c-0.7-0.2-1.5-0.3-2.2-0.3c-1.4,0-2.6,0.3-3.6,0.9c-1,0.6-1.9,1.5-2.6,2.6h-0.1v-2.9c0-0.8,0-1.8,0-2.8c0-1,0-2,0.1-3
	c0-1,0.1-1.9,0.1-2.8c0-0.9,0.1-1.7,0.1-2.3c-0.7,0.1-1.3,0.2-1.7,0.2c-0.4,0-1-0.1-1.7-0.2c0.1,0.6,0.1,1.4,0.1,2.3
	c0,0.9,0.1,1.9,0.1,2.9c0,1,0,2,0.1,3C79.3,44.2,79.3,45.2,79.3,46z M101.4,40.4c0.4,0.4,0.8,0.6,1.4,0.6c0.5,0,1-0.2,1.4-0.6
	c0.4-0.4,0.6-0.8,0.6-1.4c0-0.5-0.2-1-0.6-1.4c-0.4-0.4-0.8-0.6-1.4-0.6c-0.5,0-1,0.2-1.4,0.6c-0.4,0.4-0.6,0.8-0.6,1.4
	C100.8,39.5,101,40,101.4,40.4z M101.4,56.9c0,1.2,0,2.4-0.1,3.6c0,1.3-0.1,2.4-0.2,3.4c0.6-0.1,1.2-0.1,1.7-0.1
	c0.6,0,1.1,0,1.7,0.1c-0.1-1-0.2-2.2-0.2-3.4c0-1.3-0.1-2.5-0.1-3.6v-4c0-1.2,0-2.4,0.1-3.6c0-1.3,0.1-2.5,0.2-3.6
	c-0.7,0.1-1.3,0.2-1.7,0.2c-0.4,0-1-0.1-1.7-0.2c0.1,1.1,0.2,2.3,0.2,3.6c0,1.3,0.1,2.5,0.1,3.6V56.9z M114.4,40.5l-3.2,1.3
	c0.1,0.8,0.1,1.6,0.1,2.4c0,0.8,0,1.4,0.1,1.9c-0.5,0-1.4,0-2.5-0.1c0,0.1,0,0.3,0.1,0.4c0,0.1,0,0.3,0,0.4c0,0.2,0,0.3,0,0.4
	c0,0.1,0,0.3-0.1,0.4c0.3,0,0.5,0,0.7-0.1c0.2,0,0.4,0,0.7,0h1.2c0,1.4,0,2.7,0,3.9c0,1.2-0.1,2.2-0.1,3.2c0,1-0.1,1.8-0.1,2.7
	c0,0.8,0,1.6,0,2.2c0,1.5,0.4,2.7,1.2,3.5c0.8,0.8,2,1.2,3.6,1.2c0.5,0,1-0.1,1.5-0.2c0.5-0.1,1-0.2,1.4-0.3v-0.9
	c-0.3,0.1-0.6,0.1-0.9,0.2c-0.3,0.1-0.6,0.1-0.8,0.1c-0.8,0-1.4-0.2-1.8-0.5c-0.4-0.3-0.7-0.8-0.9-1.3c-0.2-0.6-0.3-1.2-0.4-1.9
	c0-0.7-0.1-1.4-0.1-2.1c0-0.8,0-1.8,0-2.9c0-1.1,0-2.1,0.1-3.1c0-1,0.1-1.8,0.1-2.6c0-0.7,0.1-1.1,0.1-1.2h1.9c0.4,0,0.8,0,1.2,0
	c0.4,0,0.7,0,1,0.1c0-0.1,0-0.2,0-0.4v-0.4v-0.4c0-0.2,0-0.3,0-0.4c-0.9,0.1-1.7,0.1-2.5,0.1c-0.8,0-1.3,0-1.6,0
	c0.1-0.9,0.1-1.9,0.1-2.8c0-0.9,0.1-1.9,0.2-2.9H114.4z M120.8,59c0.4,1.1,1.1,2.1,1.9,2.9c0.8,0.8,1.8,1.4,3,1.8
	c1.1,0.4,2.4,0.6,3.8,0.6c1.2,0,2.4-0.2,3.6-0.7c1.1-0.4,2.1-1,2.9-1.6l0.2-1.9l-0.2-0.1c-0.3,0.4-0.7,0.7-1.2,1.1
	c-0.4,0.3-0.9,0.6-1.4,0.9c-0.5,0.2-1,0.4-1.6,0.6c-0.5,0.1-1.1,0.2-1.6,0.2c-1.1,0-2-0.2-2.8-0.6c-0.8-0.4-1.5-0.9-2.1-1.5
	c-0.6-0.6-1-1.4-1.3-2.2c-0.3-0.9-0.4-1.8-0.4-2.8v-0.5c0-0.3,0-0.4,0-0.6c0.8,0,1.7-0.1,2.5-0.1c0.8,0,1.7,0,2.5,0
	c1.4,0,2.8,0,4.1,0c1.4,0,2.7,0.1,4.1,0.1c0-0.3,0-0.5,0.1-0.7c0-0.2,0-0.5,0-0.7c0-1.1-0.2-2.1-0.5-3c-0.3-0.9-0.8-1.8-1.5-2.5
	c-0.7-0.7-1.5-1.3-2.5-1.7c-1-0.4-2.2-0.6-3.5-0.6c-2.9,0-5.1,0.9-6.6,2.7c-1.5,1.8-2.2,4.3-2.2,7.4C120.2,56.7,120.4,57.9,120.8,59
	z M131.5,47.2c0.6,0.4,1.1,1,1.4,1.7c0.3,0.7,0.6,1.4,0.7,2.2c0.1,0.8,0.2,1.5,0.2,2.2c-0.8,0-1.7,0.1-2.5,0.1c-0.9,0-1.7,0-2.6,0
	c-0.8,0-1.7,0-2.5,0c-0.9,0-1.7-0.1-2.5-0.1c0.1-0.7,0.2-1.4,0.4-2.2c0.2-0.8,0.5-1.5,1-2.2c0.4-0.7,1-1.2,1.6-1.6
	c0.7-0.4,1.5-0.7,2.4-0.7C130,46.5,130.9,46.8,131.5,47.2z M171.7,47.5v1.3c-1.4,0-2.7,0.1-4,0.1c-1.3,0-2.6,0-4,0c-1.4,0-2.7,0-4,0
	c-1.3,0-2.6-0.1-4-0.1v-1.3c0-1.7,0-3.3,0.1-5c0.1-1.6,0.1-3.3,0.2-5c-0.3,0.1-0.7,0.1-1,0.1c-0.3,0-0.6,0.1-0.9,0.1
	c-0.3,0-0.6,0-0.9-0.1c-0.3,0-0.6-0.1-1-0.1c0.1,1.7,0.1,3.3,0.2,5c0.1,1.6,0.1,3.3,0.1,5v6.6c0,1.7,0,3.4-0.1,5
	c-0.1,1.6-0.1,3.3-0.2,4.8c0.6-0.1,1.2-0.1,1.9-0.1c0.7,0,1.3,0,1.9,0.1c-0.1-1.6-0.1-3.2-0.2-4.8c-0.1-1.6-0.1-3.3-0.1-5v-3.5
	c1.4,0,2.7,0,4-0.1c1.3,0,2.6,0,4,0c1.4,0,2.7,0,4,0c1.3,0,2.6,0,4,0.1v3.5c0,1.7,0,3.4-0.1,5c-0.1,1.6-0.1,3.3-0.2,4.8
	c0.6-0.1,1.2-0.1,1.9-0.1c0.7,0,1.3,0,1.9,0.1c-0.1-1.6-0.1-3.2-0.2-4.8c-0.1-1.6-0.1-3.3-0.1-5v-6.6c0-1.7,0-3.3,0.1-5
	c0.1-1.6,0.1-3.3,0.2-5c-0.3,0.1-0.7,0.1-1,0.1c-0.3,0-0.6,0.1-0.9,0.1c-0.3,0-0.6,0-0.9-0.1c-0.3,0-0.6-0.1-1-0.1
	c0.1,1.7,0.1,3.3,0.2,5C171.7,44.1,171.7,45.8,171.7,47.5z M181.9,49.5h0.4c0.4-0.8,1.1-1.5,2-1.9c0.9-0.5,1.8-0.7,2.9-0.7
	c0.8,0,1.4,0.1,2,0.4c0.5,0.3,1,0.6,1.3,1.1c0.3,0.4,0.6,0.9,0.7,1.5c0.2,0.6,0.2,1.2,0.2,1.8c0,0.4,0,0.7-0.1,0.9
	c-0.1,0.2-0.3,0.5-0.7,0.6c-0.4,0.2-0.9,0.4-1.7,0.5c-0.8,0.2-1.9,0.4-3.2,0.6c-1.7,0.3-3,0.8-4,1.7c-1,0.8-1.4,2-1.4,3.6
	c0,0.7,0.1,1.4,0.4,2c0.3,0.6,0.7,1.1,1.2,1.5c0.5,0.4,1,0.7,1.6,0.9s1.2,0.3,1.9,0.3c1.3,0,2.4-0.2,3.3-0.7c0.9-0.4,1.8-1.1,2.7-2
	c0.1,0.7,0.3,1.2,0.8,1.6c0.4,0.4,1.1,0.6,1.9,0.6c0.5,0,1,0,1.4-0.1c0.4-0.1,0.8-0.2,1.1-0.3v-0.8c-0.1,0.1-0.3,0.1-0.4,0.1
	c-0.1,0-0.3,0-0.4,0c-0.4,0-0.7-0.1-0.9-0.3c-0.2-0.2-0.3-0.4-0.4-0.7c-0.1-0.3-0.2-0.6-0.2-0.9c0-0.3,0-0.7,0-1
	c0-1.6,0-3.1,0.1-4.6c0.1-1.4,0.1-2.9,0.1-4.4c0-0.8-0.2-1.6-0.5-2.3c-0.3-0.7-0.7-1.3-1.3-1.8c-0.5-0.5-1.2-0.9-2-1.2
	c-0.8-0.3-1.6-0.4-2.5-0.4c-1,0-2,0.2-3,0.5c-1,0.3-2,0.9-3.2,1.8V49.5z M191.2,60.1c-0.4,0.7-1.1,1.3-1.9,1.9
	c-0.8,0.5-1.7,0.8-2.7,0.8c-0.8,0-1.6-0.3-2.3-0.9c-0.7-0.6-1-1.5-1-2.7c0-0.7,0.1-1.3,0.4-1.8c0.3-0.5,0.6-0.8,1.1-1.2
	c0.4-0.3,1-0.6,1.5-0.7c0.6-0.2,1.2-0.3,1.7-0.4c0.6-0.1,1.2-0.2,1.7-0.3c0.6-0.1,1.1-0.2,1.5-0.4L191.2,60.1z M209.5,48.8l0.3-0.2
	c0-0.5,0-1.1,0-1.7c0-0.6,0.1-1.1,0.2-1.4c-0.3-0.1-0.5-0.2-0.6-0.2c-0.2,0-0.4,0-0.6,0c-1.9,0-3.6,1.4-5.1,4.1l-0.1,0
	c0-0.5,0-1,0-1.5c0-0.5,0.1-1.3,0.2-2.2c-0.3,0.1-0.6,0.1-0.8,0.1c-0.3,0-0.5,0.1-0.7,0.1c-0.3,0-0.6,0-0.8-0.1
	c-0.3,0-0.5-0.1-0.8-0.1c0.1,1.7,0.1,3.2,0.1,4.5c0,1.3,0,2.5,0,3.5v1.2c0,2.2,0,4,0,5.5c0,1.5-0.1,2.7-0.1,3.6
	c0.5-0.1,1-0.1,1.6-0.1c0.5,0,1,0,1.5,0.1c-0.1-0.6-0.1-1.3-0.1-2.2c0-0.9,0-2.2,0-3.9v-4.2c0-0.7,0.1-1.4,0.3-2.1
	c0.2-0.7,0.4-1.2,0.8-1.7c0.3-0.5,0.7-0.9,1.2-1.1c0.5-0.3,1-0.4,1.7-0.4c0.4,0,0.8,0.1,1.1,0.2C209.2,48.5,209.4,48.7,209.5,48.8z
	 M212.6,59c0.4,1.1,1.1,2.1,1.9,2.9c0.8,0.8,1.8,1.4,3,1.8c1.1,0.4,2.4,0.6,3.8,0.6c1.2,0,2.4-0.2,3.6-0.7c1.1-0.4,2.1-1,2.9-1.6
	l0.2-1.9l-0.2-0.1c-0.3,0.4-0.7,0.7-1.2,1.1c-0.4,0.3-0.9,0.6-1.4,0.9c-0.5,0.2-1,0.4-1.6,0.6c-0.5,0.1-1.1,0.2-1.6,0.2
	c-1.1,0-2-0.2-2.8-0.6c-0.8-0.4-1.5-0.9-2.1-1.5c-0.6-0.6-1-1.4-1.3-2.2c-0.3-0.9-0.4-1.8-0.4-2.8v-0.5c0-0.3,0-0.4,0-0.6
	c0.8,0,1.7-0.1,2.5-0.1c0.8,0,1.7,0,2.5,0c1.4,0,2.8,0,4.1,0c1.4,0,2.7,0.1,4.1,0.1c0-0.3,0-0.5,0.1-0.7c0-0.2,0-0.5,0-0.7
	c0-1.1-0.2-2.1-0.5-3c-0.3-0.9-0.8-1.8-1.5-2.5c-0.7-0.7-1.5-1.3-2.5-1.7c-1-0.4-2.2-0.6-3.5-0.6c-2.9,0-5.1,0.9-6.6,2.7
	c-1.5,1.8-2.2,4.3-2.2,7.4C212,56.7,212.2,57.9,212.6,59z M223.3,47.2c0.6,0.4,1.1,1,1.4,1.7c0.3,0.7,0.6,1.4,0.7,2.2
	c0.1,0.8,0.2,1.5,0.2,2.2c-0.8,0-1.7,0.1-2.5,0.1c-0.9,0-1.7,0-2.6,0c-0.8,0-1.7,0-2.5,0c-0.9,0-1.7-0.1-2.5-0.1
	c0.1-0.7,0.2-1.4,0.4-2.2c0.2-0.8,0.5-1.5,1-2.2c0.4-0.7,1-1.2,1.6-1.6c0.7-0.4,1.5-0.7,2.4-0.7C221.8,46.5,222.6,46.8,223.3,47.2z
	 M29.9,41.4c0.2-0.1,0.4-0.2,0.5-0.3c0.2-0.1,0.3-0.1,0.4-0.2c0.3-0.1,0.4-0.2,0.4-0.2v-0.1c0,0-0.1-0.1-0.4-0.2
	c-0.1,0-0.3-0.1-0.5-0.1c-0.2,0-0.4-0.1-0.7,0c-0.1,0-0.3,0-0.4,0c-0.1,0-0.3,0.1-0.4,0.1c-0.3,0.1-0.6,0.2-0.9,0.4
	c-0.3,0.2-0.5,0.4-0.8,0.7c-0.2,0.3-0.5,0.5-0.6,0.8c-0.2,0.3-0.4,0.6-0.5,0.9c-0.1,0.3-0.3,0.6-0.3,0.9c-0.1,0.3-0.2,0.6-0.2,0.9
	c-0.1,0.3-0.1,0.5-0.1,0.8c0,0.2,0,0.5,0,0.7c0,0.2,0,0.4,0,0.5c0,0.3,0,0.4,0,0.4l0.1,0c0,0,0-0.2,0.1-0.4c0-0.3,0.1-0.6,0.2-1.1
	c0,0,0-0.1,0-0.1c0.1,0.2,0.2,0.4,0.4,0.5c0.7,0.5,2-0.1,2.8-1.3c0.8-1.2,0.9-2.6,0.2-3c0,0-0.1,0-0.1,0c0,0,0.1-0.1,0.1-0.1
	C29.6,41.6,29.7,41.5,29.9,41.4z M26.3,31.4c1.2,0.4,1.4-2.5,4.2-6.4c2.8-3.9,4.5-3.8,4.5-3.8s7.6-10,8.5-16.2
	c0.2-1.4,1.2-2.8,0.8-3.6c-0.9-2.2-4-1.3-7.3-0.2C32.9,2.6,28,17.5,28,17.5s-2.7,9.7-2.8,13C25.2,31.1,26,31.3,26.3,31.4z M1.3,7.5
	c2.1,1.8,4.5,11.1,6.3,12.9c1.8,1.8,3,3.7,3.5,4.8c1.5,3.5,4.7,5.1,4.7,5.1s-1.5-11-4.2-16.8C7,3.5,4,2.5,0.1,3
	C0.1,3-0.8,5.7,1.3,7.5z M11.6,41.2c-0.5,0.1-0.7,1.1-0.5,2.3c0.3,1.1,0.9,2,1.4,1.9c0.1,0,0.3-0.1,0.4-0.3c0,0,0,0,0,0.1
	c0,0.3,0,0.6,0,0.8c0,0.2,0,0.3,0,0.3s0.1-0.1,0.1-0.3c0.1-0.2,0.2-0.4,0.3-0.7c0.1-0.3,0.1-0.7,0.2-1.1c0-0.4,0-0.9-0.1-1.3
	c-0.1-0.2-0.1-0.4-0.2-0.6c-0.1-0.2-0.2-0.4-0.3-0.6c-0.2-0.4-0.5-0.7-0.8-0.9c-0.3-0.2-0.6-0.3-0.8-0.3c-0.2,0-0.3,0-0.3,0
	s0.1,0.1,0.2,0.2c0.1,0.1,0.3,0.3,0.5,0.5c0.1,0.1,0.1,0.2,0.2,0.3C11.9,41.2,11.8,41.2,11.6,41.2z M14.8,58.3
	c-0.2-0.1-0.3-0.2-0.3-0.2s0,0.1,0,0.3c0,0.2,0.1,0.5,0.2,0.8c0.1,0.3,0.3,0.7,0.7,1c0.2,0.2,0.4,0.3,0.6,0.4
	c0.1,0.1,0.3,0.1,0.4,0.1c0.1,0.7,0.3,1.7,0.1,1.8c-0.3,0.2-1.5-0.5-1.5-0.5s1,1.3,2.1,1.4c1.2,0,3.4-0.6,2.6-0.6
	c-0.8,0-1.9,0-2.1-0.2c-0.1-0.1-0.2-1.1-0.4-1.9c0.4,0,0.7-0.2,1-0.3c0.4-0.2,0.7-0.4,0.9-0.6C19.8,59.4,20,59,20,59s-0.1,0-0.3,0
	c-0.2,0-0.5,0-0.8,0.1c-0.3,0-0.6,0.1-1,0.2c-0.2,0-0.3,0.1-0.5,0.1c-0.2,0-0.3,0-0.4,0c-0.1,0-0.1,0-0.2,0c-0.1,0-0.1,0-0.2,0
	c-0.1,0-0.3-0.1-0.4-0.1c-0.3-0.1-0.5-0.3-0.8-0.5C15.2,58.6,15,58.4,14.8,58.3z"/>
</svg>
