<?xml version="1.0" encoding="utf-8"?>
<!-- Generator: Adobe Illustrator 23.0.2, SVG Export Plug-In . SVG Version: 6.00 Build 0)  -->
<svg version="1.1" id="Livello_1" xmlns="http://www.w3.org/2000/svg" xmlns:xlink="http://www.w3.org/1999/xlink" x="0px" y="0px"
	 viewBox="0 0 140.3 39.1" style="enable-background:new 0 0 140.3 39.1;" xml:space="preserve">
<style type="text/css">
	.st0{fill:#1D1D1B;}
</style>
<path class="st0" d="M29.7,38.8c0.3,0,0.6,0,0.8,0c0.2-0.7,0.5-1.4,0.8-2.3c0.3-0.8,0.6-1.7,0.9-2.6c0.3-0.9,0.6-1.7,0.9-2.6
	c0.3-0.9,0.6-1.7,0.8-2.4c0.3-0.7,0.5-1.4,0.7-2s0.4-1.1,0.5-1.4l0,0c0.8,2.3,1.5,4.6,2.2,6.8s1.4,4.4,2.1,6.5c0.2,0,0.5,0,0.8,0
	s0.5,0,0.8,0c0.1-0.4,0.4-1,0.6-1.8c0.3-0.8,0.6-1.8,1-2.9c0.4-1.1,0.7-2.2,1.1-3.4c0.4-1.2,0.8-2.3,1.1-3.4c0.4-1.1,0.7-2,1-2.8
	s0.5-1.4,0.7-1.8c-0.1,0-0.3,0.1-0.4,0.1s-0.3,0-0.4,0s-0.3,0-0.4,0s-0.3-0.1-0.4-0.1c-0.1,0.3-0.2,0.9-0.4,1.6
	c-0.2,0.7-0.5,1.5-0.7,2.4c-0.3,0.9-0.6,1.9-0.9,2.9s-0.6,2-0.9,2.9c-0.3,0.9-0.5,1.7-0.8,2.5c-0.2,0.7-0.4,1.3-0.5,1.6l0,0
	c-0.1-0.4-0.3-1-0.6-1.7c-0.2-0.7-0.5-1.5-0.8-2.4c-0.3-0.9-0.6-1.8-0.9-2.8s-0.6-1.9-0.9-2.8s-0.5-1.7-0.8-2.4
	c-0.2-0.7-0.4-1.3-0.5-1.7c-0.3,0.1-0.6,0.1-0.8,0.1c-0.2,0-0.5,0-0.8-0.1c-0.1,0.4-0.2,0.9-0.5,1.7c-0.2,0.7-0.5,1.5-0.7,2.4
	c-0.3,0.9-0.6,1.8-0.9,2.8s-0.6,1.9-0.9,2.8c-0.3,0.9-0.6,1.7-0.8,2.5c-0.2,0.7-0.4,1.3-0.6,1.7l0,0c-0.5-1.5-0.9-2.8-1.3-4
	c-0.4-1.2-0.7-2.3-1-3.4s-0.6-2.1-0.9-3.2s-0.6-2.1-0.9-3.3c-0.2,0-0.4,0.1-0.6,0.1s-0.4,0-0.6,0s-0.4,0-0.6,0s-0.4-0.1-0.6-0.1
	c0.2,0.4,0.4,1,0.6,1.9c0.3,0.8,0.6,1.8,0.9,2.8c0.3,1.1,0.7,2.2,1,3.3c0.4,1.2,0.7,2.3,1,3.3c0.3,1.1,0.6,2,0.9,2.9
	c0.3,0.8,0.4,1.5,0.6,1.8C29.1,38.8,29.4,38.8,29.7,38.8z M48.8,28v4.2c0,0.5,0,1.1,0,1.7c0,0.6,0,1.2,0,1.8s0,1.2-0.1,1.7
	c0,0.5-0.1,1-0.1,1.4c0.4,0,0.7,0,1.1,0c0.3,0,0.7,0,1.1,0c0-0.3-0.1-0.8-0.1-1.3s0-1.1-0.1-1.7c0-0.6,0-1.2,0-1.7
	c0-0.6,0-1.1,0-1.5c0-1.2,0.3-2.2,0.8-2.8c0.5-0.7,1.3-1,2.4-1c0.8,0,1.4,0.3,1.9,0.9s0.7,1.5,0.7,2.7v1.4c0,0.9,0,1.8-0.1,2.6
	c0,0.9-0.1,1.7-0.1,2.5c0.3,0,0.6,0,1,0c0.3,0,0.7,0,1,0c0-0.2,0-0.4,0-0.7c0-0.2,0-0.5,0-0.7V36c0-0.8,0-1.5,0-2.3
	c0-0.7,0-1.4,0-2.1c0-0.8-0.1-1.5-0.3-2c-0.2-0.5-0.5-0.9-0.9-1.2c-0.4-0.3-0.8-0.5-1.2-0.6c-0.4-0.1-0.9-0.2-1.3-0.2
	c-0.8,0-1.6,0.2-2.2,0.5c-0.6,0.4-1.1,0.9-1.6,1.6l0,0v-1.8c0-0.5,0-1.1,0-1.7s0-1.2,0-1.8c0-0.6,0-1.2,0.1-1.7c0-0.5,0.1-1,0.1-1.4
	c-0.4,0.1-0.8,0.1-1.1,0.1c-0.3,0-0.6,0-1.1-0.1c0,0.4,0.1,0.9,0.1,1.4c0,0.6,0,1.1,0.1,1.7c0,0.6,0,1.2,0,1.8
	C48.8,26.9,48.8,27.4,48.8,28z M62.3,24.5c0.2,0.2,0.5,0.4,0.8,0.4s0.6-0.1,0.8-0.4c0.2-0.2,0.4-0.5,0.4-0.8s-0.1-0.6-0.4-0.8
	c-0.2-0.2-0.5-0.4-0.8-0.4s-0.6,0.1-0.8,0.4c-0.2,0.2-0.4,0.5-0.4,0.8S62,24.3,62.3,24.5z M62.3,34.6c0,0.7,0,1.4,0,2.2
	s-0.1,1.5-0.2,2.1c0.4,0,0.7,0,1.1,0c0.3,0,0.7,0,1.1,0c-0.1-0.6-0.1-1.3-0.2-2.1c0-0.8,0-1.5,0-2.2v-2.4c0-0.7,0-1.4,0-2.2
	c0-0.8,0.1-1.5,0.2-2.2c-0.4,0.1-0.8,0.1-1.1,0.1c-0.3,0-0.6,0-1.1-0.1c0.1,0.7,0.1,1.4,0.2,2.2c0,0.8,0,1.5,0,2.2V34.6z M70.2,24.6
	l-1.9,0.8c0,0.5,0.1,1,0.1,1.4c0,0.5,0,0.9,0,1.2c-0.3,0-0.8,0-1.5-0.1c0,0.1,0,0.2,0,0.2c0,0.1,0,0.2,0,0.2c0,0.1,0,0.2,0,0.3
	c0,0.1,0,0.2,0,0.3c0.2,0,0.3,0,0.4,0s0.3,0,0.4,0h0.7c0,0.9,0,1.7,0,2.4c0,0.7,0,1.4-0.1,1.9c0,0.6,0,1.1-0.1,1.6
	c0,0.5,0,0.9,0,1.4c0,0.9,0.2,1.6,0.7,2.1s1.2,0.7,2.2,0.7c0.3,0,0.6,0,0.9-0.1s0.6-0.1,0.9-0.2v-0.6c-0.2,0-0.3,0.1-0.5,0.1
	s-0.4,0-0.5,0c-0.5,0-0.8-0.1-1.1-0.3c-0.2-0.2-0.4-0.5-0.6-0.8C70.1,36.8,70,36.4,70,36c0-0.4,0-0.8,0-1.3s0-1.1,0-1.8s0-1.3,0-1.9
	s0-1.1,0.1-1.6c0-0.4,0-0.7,0.1-0.7h1.1c0.2,0,0.5,0,0.7,0s0.4,0,0.6,0c0,0,0-0.1,0-0.2v-0.3V28c0-0.1,0-0.2,0-0.3
	c-0.5,0-1.1,0.1-1.5,0.1c-0.5,0-0.8,0-1,0c0-0.6,0.1-1.1,0.1-1.7s0.1-1.1,0.1-1.7h-0.1V24.6z M74.1,35.9c0.3,0.7,0.7,1.3,1.2,1.7
	c0.5,0.5,1.1,0.9,1.8,1.1c0.7,0.3,1.5,0.4,2.3,0.4c0.7,0,1.5-0.1,2.2-0.4c0.7-0.3,1.3-0.6,1.7-1l0.1-1.1l-0.1-0.1
	c-0.2,0.2-0.4,0.5-0.7,0.7c-0.3,0.2-0.6,0.4-0.9,0.5s-0.6,0.3-1,0.4c-0.3,0.1-0.6,0.1-1,0.1c-0.7,0-1.2-0.1-1.7-0.3
	s-0.9-0.5-1.3-0.9c-0.3-0.4-0.6-0.8-0.8-1.4c-0.2-0.5-0.3-1.1-0.3-1.7v-0.3c0-0.2,0-0.3,0-0.4c0.5,0,1,0,1.5,0s1,0,1.5,0
	c0.8,0,1.7,0,2.5,0s1.7,0,2.5,0c0-0.2,0-0.3,0-0.5c0-0.1,0-0.3,0-0.5c0-0.7-0.1-1.3-0.3-1.8c-0.2-0.6-0.5-1.1-0.9-1.5
	s-0.9-0.8-1.5-1c-0.6-0.3-1.3-0.4-2.1-0.4c-1.7,0-3.1,0.5-4,1.6s-1.4,2.6-1.4,4.5C73.7,34.5,73.8,35.2,74.1,35.9z M80.6,28.7
	c0.4,0.3,0.7,0.6,0.9,1c0.2,0.4,0.4,0.8,0.4,1.3c0.1,0.5,0.1,0.9,0.1,1.3c-0.5,0-1,0-1.5,0s-1.1,0-1.6,0s-1,0-1.5,0s-1,0-1.5,0
	c0-0.4,0.1-0.9,0.2-1.3c0.1-0.5,0.3-0.9,0.6-1.3c0.3-0.4,0.6-0.7,1-1s0.9-0.4,1.5-0.4C79.7,28.3,80.2,28.4,80.6,28.7z M105,28.9v0.8
	c-0.8,0-1.7,0-2.4,0c-0.8,0-1.6,0-2.4,0c-0.8,0-1.7,0-2.4,0c-0.8,0-1.6,0-2.4,0v-0.8c0-1,0-2,0.1-3c0-1,0.1-2,0.1-3
	c-0.2,0-0.4,0.1-0.6,0.1c-0.2,0-0.4,0-0.6,0s-0.4,0-0.6,0c-0.2,0-0.4-0.1-0.6-0.1c0,1,0.1,2,0.1,3s0.1,2,0.1,3v4c0,1,0,2-0.1,3
	c0,1-0.1,2-0.1,2.9c0.4,0,0.7,0,1.1,0s0.8,0,1.1,0c0-1-0.1-1.9-0.1-2.9s-0.1-2-0.1-3v-2.1c0.8,0,1.7,0,2.4,0c0.8,0,1.6,0,2.4,0
	c0.8,0,1.7,0,2.4,0c0.8,0,1.6,0,2.4,0v2.1c0,1,0,2-0.1,3c0,1-0.1,2-0.1,2.9c0.4,0,0.7,0,1.1,0s0.8,0,1.1,0c0-1-0.1-1.9-0.1-2.9
	s-0.1-2-0.1-3v-4c0-1,0-2,0.1-3c0-1,0.1-2,0.1-3c-0.2,0-0.4,0.1-0.6,0.1c-0.2,0-0.4,0-0.6,0s-0.4,0-0.6,0c-0.2,0-0.4-0.1-0.6-0.1
	c0,1,0.1,2,0.1,3C105,26.8,105,27.8,105,28.9z M111.2,30.1h0.3c0.3-0.5,0.7-0.9,1.2-1.2c0.5-0.3,1.1-0.4,1.7-0.4
	c0.5,0,0.9,0.1,1.2,0.2c0.3,0.2,0.6,0.4,0.8,0.6c0.2,0.3,0.4,0.6,0.4,0.9c0.1,0.4,0.1,0.7,0.1,1.1c0,0.2,0,0.4-0.1,0.6
	c0,0.1-0.2,0.3-0.4,0.4c-0.2,0.1-0.6,0.2-1.1,0.3s-1.1,0.2-2,0.4c-1,0.2-1.8,0.5-2.4,1c-0.6,0.5-0.9,1.2-0.9,2.2
	c0,0.5,0.1,0.9,0.3,1.2c0.2,0.4,0.4,0.7,0.7,0.9s0.6,0.4,1,0.5s0.8,0.2,1.1,0.2c0.8,0,1.5-0.1,2-0.4c0.5-0.3,1.1-0.7,1.7-1.2
	c0,0.4,0.2,0.7,0.5,1s0.6,0.4,1.1,0.4c0.3,0,0.6,0,0.9-0.1c0.3,0,0.5-0.1,0.6-0.2V38c-0.1,0-0.2,0.1-0.2,0.1c-0.1,0-0.2,0-0.2,0
	c-0.2,0-0.4-0.1-0.5-0.2c-0.1-0.1-0.2-0.2-0.3-0.4s-0.1-0.4-0.1-0.6c0-0.2,0-0.4,0-0.6c0-1,0-1.9,0-2.8c0-0.9,0-1.8,0-2.7
	c0-0.5-0.1-1-0.3-1.4s-0.4-0.8-0.8-1.1c-0.3-0.3-0.7-0.5-1.2-0.7s-1-0.2-1.5-0.2c-0.6,0-1.2,0.1-1.8,0.3c-0.6,0.2-1.2,0.5-1.9,1.1
	L111.2,30.1L111.2,30.1z M116.9,36.6c-0.3,0.4-0.6,0.8-1.1,1.1s-1,0.5-1.6,0.5c-0.5,0-1-0.2-1.4-0.6c-0.4-0.4-0.6-0.9-0.6-1.7
	c0-0.4,0.1-0.8,0.2-1.1c0.2-0.3,0.4-0.5,0.7-0.7s0.6-0.3,0.9-0.4c0.4-0.1,0.7-0.2,1.1-0.3c0.4-0.1,0.7-0.1,1.1-0.2
	c0.4-0.1,0.7-0.1,0.9-0.2L116.9,36.6z M128.1,29.7l0.2-0.1c0-0.3,0-0.7,0-1c0-0.4,0.1-0.7,0.1-0.9c-0.2-0.1-0.3-0.1-0.4-0.1
	c-0.1,0-0.2,0-0.4,0c-1.1,0-2.2,0.8-3.1,2.5l0,0c0-0.3,0-0.6,0-0.9s0-0.8,0.1-1.3c-0.2,0-0.3,0.1-0.5,0.1s-0.3,0-0.4,0
	c-0.2,0-0.3,0-0.5,0s-0.3-0.1-0.5-0.1c0,1,0.1,1.9,0.1,2.7c0,0.8,0,1.5,0,2.1v0.7c0,1.3,0,2.4,0,3.4c0,0.9,0,1.6-0.1,2.2
	c0.3,0,0.6,0,1,0c0.3,0,0.6,0,0.9,0c0-0.3-0.1-0.8-0.1-1.3c0-0.6,0-1.4,0-2.4v-2.6c0-0.5,0.1-0.9,0.2-1.3c0.1-0.4,0.3-0.7,0.5-1
	s0.5-0.5,0.7-0.7c0.3-0.2,0.6-0.3,1-0.3c0.2,0,0.5,0,0.7,0.1C127.8,29.5,128,29.6,128.1,29.7z M129.9,35.9c0.3,0.7,0.7,1.3,1.2,1.7
	c0.5,0.5,1.1,0.9,1.8,1.1c0.7,0.3,1.5,0.4,2.3,0.4c0.7,0,1.5-0.1,2.2-0.4c0.7-0.3,1.3-0.6,1.7-1l0.1-1.1l-0.1-0.1
	c-0.2,0.2-0.4,0.5-0.7,0.7s-0.6,0.4-0.9,0.5c-0.3,0.1-0.6,0.3-1,0.4c-0.3,0.1-0.6,0.1-1,0.1c-0.7,0-1.2-0.1-1.7-0.3
	s-0.9-0.5-1.3-0.9c-0.3-0.4-0.6-0.8-0.8-1.4c-0.2-0.5-0.3-1.1-0.3-1.7v-0.3c0-0.2,0-0.3,0-0.4c0.5,0,1,0,1.5,0s1,0,1.5,0
	c0.8,0,1.7,0,2.5,0s1.7,0,2.5,0c0-0.2,0-0.3,0-0.5c0-0.1,0-0.3,0-0.5c0-0.7-0.1-1.3-0.3-1.8c-0.2-0.6-0.5-1.1-0.9-1.5
	s-0.9-0.8-1.5-1c-0.6-0.3-1.3-0.4-2.1-0.4c-1.7,0-3.1,0.5-4,1.6s-1.4,2.6-1.4,4.5C129.5,34.5,129.7,35.2,129.9,35.9z M136.4,28.7
	c0.4,0.3,0.7,0.6,0.9,1s0.4,0.8,0.4,1.3c0.1,0.5,0.1,0.9,0.1,1.3c-0.5,0-1,0-1.5,0s-1.1,0-1.6,0s-1,0-1.5,0s-1,0-1.5,0
	c0-0.4,0.1-0.9,0.2-1.3c0.1-0.5,0.3-0.9,0.6-1.3s0.6-0.7,1-1s0.9-0.4,1.5-0.4C135.5,28.3,136,28.4,136.4,28.7z M18.8,25.2
	c0.1-0.1,0.2-0.1,0.3-0.2s0.2-0.1,0.3-0.1c0.2-0.1,0.2-0.1,0.2-0.1v-0.1c0,0-0.1,0-0.3-0.1c-0.1,0-0.2-0.1-0.3-0.1s-0.3,0-0.4,0
	c-0.1,0-0.2,0-0.2,0c-0.1,0-0.2,0-0.3,0.1c-0.2,0-0.4,0.1-0.5,0.2c-0.2,0.1-0.3,0.2-0.5,0.4c-0.1,0.2-0.3,0.3-0.4,0.5
	c-0.1,0.2-0.2,0.3-0.3,0.5s-0.2,0.4-0.2,0.5c-0.1,0.2-0.1,0.4-0.1,0.5c0,0.2,0,0.3,0,0.5c0,0.1,0,0.3,0,0.4s0,0.2,0,0.3
	c0,0.2,0,0.3,0,0.3h0.1c0,0,0-0.1,0-0.3c0-0.2,0.1-0.4,0.1-0.7c0,0,0,0,0-0.1c0,0.1,0.1,0.2,0.2,0.3c0.4,0.3,1.2,0,1.7-0.8
	c0.5-0.7,0.5-1.6,0.1-1.9c0,0,0,0-0.1,0h0.1C18.6,25.3,18.7,25.2,18.8,25.2z M16.6,19c0.7,0.3,0.8-1.5,2.5-3.9s2.8-2.3,2.8-2.3
	s4.6-6.1,5.2-9.9c0.1-0.8,0.7-1.7,0.5-2.2c-0.5-1.3-2.5-0.8-4.5-0.1c-2.5,0.8-5.5,9.9-5.5,9.9s-1.7,5.9-1.7,7.9
	C15.9,18.9,16.4,19,16.6,19z M1.4,4.5c1.3,1.1,2.7,6.8,3.8,7.9s1.8,2.2,2.1,2.9c0.9,2.1,2.8,3.1,2.8,3.1S9.2,11.7,7.5,8.2
	c-2.8-6.1-4.6-6.7-7-6.4C0.7,1.8,0.1,3.4,1.4,4.5z M7.7,25.1c-0.3,0.1-0.4,0.7-0.3,1.4c0.2,0.7,0.5,1.2,0.9,1.1
	c0.1,0,0.2-0.1,0.2-0.2l0,0c0,0.2,0,0.3,0,0.5c0,0.1,0,0.2,0,0.2s0-0.1,0.1-0.2s0.1-0.3,0.2-0.5c0-0.2,0.1-0.4,0.1-0.7
	c0-0.3,0-0.5-0.1-0.8c0-0.1-0.1-0.3-0.1-0.4s-0.1-0.2-0.2-0.4c-0.1-0.2-0.3-0.4-0.5-0.5s-0.3-0.2-0.5-0.2c-0.1,0-0.2,0-0.2,0
	s0.1,0,0.1,0.1c0.1,0.1,0.2,0.2,0.3,0.3c0,0.1,0.1,0.1,0.1,0.2S7.7,25,7.7,25.1z M9.6,35.4c-0.1-0.1-0.2-0.1-0.2-0.1s0,0.1,0,0.2
	c0,0.1,0.1,0.3,0.1,0.5c0.1,0.2,0.2,0.4,0.4,0.6c0.1,0.1,0.2,0.2,0.4,0.2c0.1,0,0.2,0.1,0.3,0.1c0.1,0.4,0.2,1,0,1.1
	s-0.9-0.3-0.9-0.3s0.6,0.8,1.3,0.8s2.1-0.4,1.6-0.4s-1.2,0-1.3-0.1s-0.2-0.7-0.2-1.1c0.2,0,0.4-0.1,0.6-0.2c0.2-0.1,0.4-0.3,0.6-0.4
	c0.3-0.3,0.4-0.5,0.4-0.5s-0.1,0-0.2,0c-0.1,0-0.3,0-0.5,0.1c-0.2,0-0.4,0.1-0.6,0.1c-0.1,0-0.2,0-0.3,0s-0.2,0-0.3,0h-0.1h-0.1
	c-0.1,0-0.2,0-0.2-0.1c-0.2-0.1-0.3-0.2-0.5-0.3C9.8,35.6,9.7,35.5,9.6,35.4z"/>
</svg>
