<?xml version="1.0" encoding="utf-8"?>
<!-- Generator: Adobe Illustrator 23.0.2, SVG Export Plug-In . SVG Version: 6.00 Build 0)  -->
<svg version="1.1" id="Livello_1" xmlns="http://www.w3.org/2000/svg" xmlns:xlink="http://www.w3.org/1999/xlink" x="0px" y="0px"
	 viewBox="0 0 425.2 141.73" style="enable-background:new 0 0 425.2 141.73;" xml:space="preserve">
<path d="M97.22,125.84c0.84,0,1.62,0.04,2.33,0.13c0.67-1.95,1.4-4.13,2.2-6.53c0.8-2.4,1.62-4.84,2.47-7.33
	c0.84-2.49,1.69-4.95,2.53-7.4c0.84-2.44,1.63-4.73,2.37-6.87c0.73-2.13,1.4-4.05,2-5.77c0.6-1.71,1.08-3.08,1.43-4.1h0.13
	c2.27,6.67,4.38,13.12,6.33,19.36c1.95,6.24,3.93,12.45,5.93,18.63c0.71-0.09,1.47-0.13,2.27-0.13c0.8,0,1.55,0.04,2.27,0.13
	c0.4-1.07,1.01-2.81,1.83-5.23c0.82-2.42,1.75-5.15,2.8-8.2c1.04-3.04,2.13-6.25,3.27-9.63c1.13-3.38,2.22-6.58,3.27-9.6
	c1.04-3.02,1.99-5.71,2.83-8.07c0.84-2.35,1.49-4.04,1.93-5.07c-0.4,0.09-0.79,0.17-1.17,0.23c-0.38,0.07-0.77,0.1-1.17,0.1
	c-0.4,0-0.79-0.03-1.17-0.1c-0.38-0.07-0.77-0.14-1.17-0.23c-0.22,0.98-0.63,2.49-1.23,4.53c-0.6,2.04-1.29,4.37-2.07,6.96
	c-0.78,2.6-1.6,5.33-2.47,8.2c-0.87,2.87-1.71,5.6-2.53,8.2c-0.82,2.6-1.56,4.93-2.2,7c-0.64,2.07-1.12,3.59-1.43,4.57h-0.13
	c-0.4-1.16-0.94-2.75-1.63-4.8c-0.69-2.04-1.46-4.33-2.3-6.87c-0.84-2.53-1.72-5.18-2.63-7.93c-0.91-2.75-1.77-5.41-2.57-7.97
	c-0.8-2.55-1.52-4.88-2.17-6.96c-0.64-2.09-1.12-3.73-1.43-4.93c-0.89,0.22-1.62,0.33-2.2,0.33c-0.58,0-1.31-0.11-2.2-0.33
	c-0.27,1.11-0.71,2.7-1.33,4.77c-0.62,2.07-1.33,4.36-2.13,6.87c-0.8,2.51-1.67,5.14-2.6,7.9c-0.93,2.76-1.82,5.41-2.67,7.97
	c-0.85,2.56-1.62,4.89-2.33,7c-0.71,2.11-1.27,3.77-1.67,4.97h-0.13c-1.33-4.22-2.52-8.01-3.57-11.36c-1.04-3.35-2.02-6.55-2.93-9.6
	c-0.91-3.04-1.77-6.04-2.57-9c-0.8-2.96-1.62-6.12-2.47-9.5c-0.58,0.09-1.13,0.17-1.67,0.23c-0.53,0.07-1.09,0.1-1.67,0.1
	c-0.58,0-1.13-0.03-1.67-0.1c-0.53-0.07-1.09-0.14-1.67-0.23c0.44,1.16,1.06,2.93,1.83,5.33c0.78,2.4,1.63,5.1,2.57,8.1
	c0.93,3,1.91,6.15,2.93,9.46c1.02,3.31,2,6.48,2.93,9.5c0.93,3.02,1.77,5.73,2.5,8.13c0.73,2.4,1.28,4.16,1.63,5.27
	C95.6,125.88,96.38,125.84,97.22,125.84z M151.88,94.91v12.06c0,1.51-0.01,3.16-0.03,4.93c-0.02,1.78-0.06,3.53-0.1,5.27
	c-0.05,1.73-0.1,3.38-0.17,4.93c-0.07,1.56-0.14,2.84-0.23,3.87c1.02-0.09,2.02-0.13,3-0.13s1.98,0.04,3,0.13
	c-0.09-0.98-0.17-2.24-0.23-3.8c-0.07-1.55-0.12-3.17-0.17-4.83c-0.05-1.67-0.08-3.32-0.1-4.97c-0.02-1.64-0.03-3.09-0.03-4.33
	c0-3.47,0.72-6.15,2.17-8.07c1.44-1.91,3.72-2.87,6.83-2.87c2.27,0,4.04,0.86,5.33,2.57c1.29,1.71,1.93,4.23,1.93,7.57v4.07
	c0,2.58-0.06,5.09-0.17,7.53c-0.11,2.44-0.21,4.82-0.3,7.13c0.89-0.09,1.8-0.13,2.73-0.13c0.98,0,1.91,0.04,2.8,0.13
	c-0.04-0.62-0.08-1.28-0.1-1.97c-0.02-0.69-0.03-1.39-0.03-2.1v-4.33c0-2.27,0.04-4.41,0.13-6.43c0.09-2.02,0.13-3.99,0.13-5.9
	c0-2.31-0.32-4.21-0.97-5.7c-0.64-1.49-1.48-2.67-2.5-3.53c-1.02-0.87-2.17-1.48-3.43-1.83c-1.27-0.35-2.52-0.53-3.77-0.53
	c-2.4,0-4.47,0.52-6.2,1.57c-1.73,1.04-3.22,2.52-4.47,4.43h-0.13v-5.07c0-1.47,0.01-3.07,0.03-4.8c0.02-1.73,0.05-3.45,0.1-5.17
	c0.04-1.71,0.1-3.34,0.17-4.9c0.07-1.55,0.14-2.89,0.23-4c-1.24,0.22-2.24,0.33-3,0.33c-0.76,0-1.76-0.11-3-0.33
	c0.09,1.11,0.17,2.46,0.23,4.03c0.07,1.58,0.12,3.23,0.17,4.97c0.04,1.73,0.08,3.49,0.1,5.27C151.86,91.76,151.88,93.4,151.88,94.91
	z M190.2,85.12c0.67,0.67,1.47,1,2.4,1c0.93,0,1.73-0.33,2.4-1c0.67-0.67,1-1.47,1-2.4s-0.33-1.73-1-2.4c-0.67-0.67-1.47-1-2.4-1
	c-0.93,0-1.73,0.33-2.4,1c-0.67,0.67-1,1.47-1,2.4S189.53,84.45,190.2,85.12z M190.14,113.71c0,2-0.03,4.1-0.1,6.3
	c-0.07,2.2-0.21,4.19-0.43,5.97c1.02-0.09,2.02-0.13,3-0.13c0.98,0,1.98,0.04,3,0.13c-0.22-1.78-0.37-3.77-0.43-5.97
	c-0.07-2.2-0.1-4.3-0.1-6.3v-6.93c0-2,0.03-4.1,0.1-6.3c0.07-2.2,0.21-4.26,0.43-6.17c-1.25,0.22-2.24,0.33-3,0.33
	c-0.76,0-1.76-0.11-3-0.33c0.22,1.91,0.37,3.97,0.43,6.17c0.07,2.2,0.1,4.3,0.1,6.3V113.71z M212.66,85.38l-5.53,2.33
	c0.09,1.42,0.14,2.8,0.17,4.13c0.02,1.33,0.06,2.44,0.1,3.33c-0.93,0-2.4-0.07-4.4-0.2c0.04,0.22,0.08,0.45,0.1,0.67
	c0.02,0.22,0.03,0.45,0.03,0.67c0,0.27-0.01,0.52-0.03,0.77c-0.02,0.24-0.06,0.5-0.1,0.77c0.44-0.04,0.87-0.08,1.27-0.1
	c0.4-0.02,0.78-0.03,1.13-0.03h2.13c0,2.49-0.02,4.74-0.07,6.77c-0.05,2.02-0.1,3.87-0.17,5.53c-0.07,1.67-0.12,3.2-0.17,4.6
	c-0.05,1.4-0.07,2.7-0.07,3.9c0,2.67,0.67,4.69,2,6.07c1.33,1.38,3.4,2.07,6.2,2.07c0.84,0,1.72-0.1,2.63-0.3
	c0.91-0.2,1.74-0.37,2.5-0.5v-1.6c-0.45,0.13-0.97,0.24-1.57,0.33c-0.6,0.09-1.08,0.13-1.43,0.13c-1.33,0-2.36-0.29-3.07-0.87
	c-0.71-0.58-1.24-1.34-1.6-2.3c-0.36-0.96-0.57-2.03-0.63-3.23c-0.07-1.2-0.1-2.42-0.1-3.67c0-1.47,0.01-3.13,0.03-5
	c0.02-1.87,0.05-3.65,0.1-5.36c0.04-1.71,0.1-3.19,0.17-4.43c0.07-1.24,0.12-1.95,0.17-2.13h3.27c0.71,0,1.38,0.01,2,0.03
	c0.62,0.02,1.22,0.06,1.8,0.1c-0.04-0.13-0.07-0.35-0.07-0.67v-0.73v-0.67c0-0.35,0.02-0.6,0.07-0.73c-1.56,0.09-3,0.14-4.33,0.17
	c-1.33,0.02-2.24,0.03-2.73,0.03c0.09-1.64,0.17-3.28,0.23-4.9c0.07-1.62,0.17-3.28,0.3-4.97H212.66z M223.89,117.38
	c0.78,1.91,1.89,3.57,3.33,4.97c1.44,1.4,3.15,2.47,5.13,3.2c1.98,0.73,4.17,1.1,6.57,1.1c2.13,0,4.19-0.38,6.16-1.13
	c1.98-0.76,3.63-1.67,4.97-2.73l0.4-3.27l-0.33-0.2c-0.58,0.67-1.26,1.29-2.03,1.87c-0.78,0.58-1.61,1.08-2.5,1.5
	c-0.89,0.42-1.8,0.76-2.73,1c-0.93,0.24-1.84,0.37-2.73,0.37c-1.87,0-3.51-0.32-4.93-0.97c-1.42-0.64-2.62-1.51-3.6-2.6
	c-0.98-1.09-1.72-2.39-2.23-3.9c-0.51-1.51-0.77-3.13-0.77-4.87v-0.87c0-0.44,0.02-0.78,0.07-1c1.47-0.04,2.92-0.09,4.37-0.13
	c1.44-0.04,2.9-0.07,4.37-0.07c2.4,0,4.78,0.02,7.13,0.07c2.36,0.05,4.73,0.09,7.13,0.13c0.04-0.44,0.08-0.88,0.1-1.3
	c0.02-0.42,0.03-0.86,0.03-1.3c0-1.87-0.28-3.62-0.83-5.27c-0.55-1.64-1.41-3.08-2.57-4.3c-1.15-1.22-2.59-2.2-4.3-2.93
	c-1.71-0.73-3.74-1.1-6.1-1.1c-4.98,0-8.76,1.56-11.36,4.67c-2.6,3.11-3.9,7.4-3.9,12.86C222.73,113.4,223.12,115.47,223.89,117.38z
	 M242.33,96.91c1.06,0.76,1.9,1.71,2.5,2.87c0.6,1.16,1,2.4,1.2,3.73c0.2,1.33,0.3,2.6,0.3,3.8c-1.42,0.05-2.89,0.09-4.4,0.13
	c-1.51,0.05-3,0.07-4.47,0.07c-1.42,0-2.88-0.02-4.37-0.07c-1.49-0.04-2.92-0.09-4.3-0.13c0.09-1.2,0.32-2.48,0.7-3.83
	c0.38-1.36,0.93-2.6,1.67-3.73c0.73-1.13,1.67-2.08,2.8-2.83c1.13-0.75,2.52-1.13,4.17-1.13C239.86,95.78,241.26,96.16,242.33,96.91
	z M312.11,97.45v2.33c-2.4,0.05-4.72,0.09-6.96,0.13c-2.25,0.05-4.57,0.07-6.97,0.07s-4.72-0.02-6.97-0.07
	c-2.24-0.04-4.56-0.09-6.96-0.13v-2.33c0-2.93,0.05-5.81,0.16-8.63c0.11-2.82,0.24-5.7,0.37-8.63c-0.58,0.09-1.13,0.17-1.67,0.23
	c-0.53,0.07-1.07,0.1-1.6,0.1s-1.07-0.03-1.6-0.1c-0.53-0.07-1.09-0.14-1.67-0.23c0.13,2.93,0.26,5.81,0.37,8.63
	c0.11,2.82,0.17,5.7,0.17,8.63v11.46c0,2.93-0.05,5.82-0.17,8.66c-0.11,2.85-0.23,5.64-0.37,8.4c1.02-0.09,2.11-0.13,3.27-0.13
	s2.24,0.04,3.27,0.13c-0.13-2.75-0.26-5.55-0.37-8.4c-0.11-2.84-0.16-5.73-0.16-8.66v-6c2.4-0.04,4.72-0.08,6.96-0.1
	c2.25-0.02,4.57-0.03,6.97-0.03s4.72,0.01,6.97,0.03c2.24,0.02,4.56,0.06,6.96,0.1v6c0,2.93-0.05,5.82-0.16,8.66
	c-0.11,2.85-0.24,5.64-0.37,8.4c1.02-0.09,2.11-0.13,3.27-0.13s2.24,0.04,3.27,0.13c-0.13-2.75-0.26-5.55-0.37-8.4
	c-0.11-2.84-0.16-5.73-0.16-8.66V97.45c0-2.93,0.05-5.81,0.16-8.63c0.11-2.82,0.24-5.7,0.37-8.63c-0.58,0.09-1.13,0.17-1.67,0.23
	c-0.53,0.07-1.07,0.1-1.6,0.1s-1.07-0.03-1.6-0.1c-0.53-0.07-1.09-0.14-1.67-0.23c0.13,2.93,0.26,5.81,0.37,8.63
	C312.06,91.64,312.11,94.51,312.11,97.45z M329.84,100.98h0.73c0.76-1.42,1.9-2.53,3.43-3.33c1.53-0.8,3.19-1.2,4.97-1.2
	c1.33,0,2.47,0.23,3.4,0.7c0.93,0.47,1.69,1.08,2.27,1.83c0.58,0.76,1,1.65,1.27,2.67c0.27,1.02,0.4,2.09,0.4,3.2
	c0,0.67-0.07,1.21-0.2,1.63c-0.13,0.42-0.52,0.79-1.17,1.1c-0.64,0.31-1.64,0.61-3,0.9c-1.36,0.29-3.23,0.63-5.63,1.03
	c-2.93,0.49-5.23,1.47-6.9,2.93c-1.67,1.47-2.5,3.53-2.5,6.2c0,1.29,0.26,2.43,0.77,3.43c0.51,1,1.18,1.86,2,2.57
	c0.82,0.71,1.77,1.22,2.83,1.53c1.07,0.31,2.15,0.47,3.27,0.47c2.27,0,4.18-0.38,5.73-1.13c1.56-0.76,3.13-1.93,4.73-3.53
	c0.13,1.16,0.58,2.1,1.33,2.83c0.75,0.73,1.84,1.1,3.27,1.1c0.89,0,1.7-0.07,2.43-0.2c0.73-0.13,1.34-0.31,1.83-0.53v-1.47
	c-0.22,0.13-0.46,0.21-0.7,0.23c-0.25,0.02-0.48,0.03-0.7,0.03c-0.67,0-1.17-0.15-1.5-0.47c-0.33-0.31-0.59-0.7-0.77-1.17
	c-0.18-0.47-0.28-1-0.3-1.6c-0.02-0.6-0.03-1.17-0.03-1.7c0-2.8,0.04-5.45,0.13-7.97c0.09-2.51,0.13-5.03,0.13-7.56
	c0-1.47-0.27-2.81-0.8-4.03c-0.53-1.22-1.27-2.27-2.2-3.13c-0.93-0.87-2.07-1.53-3.4-2c-1.33-0.47-2.8-0.7-4.4-0.7
	c-1.78,0-3.51,0.27-5.2,0.8c-1.69,0.53-3.53,1.56-5.53,3.07V100.98z M346.04,119.38c-0.76,1.24-1.83,2.33-3.23,3.27
	c-1.4,0.93-2.94,1.4-4.63,1.4c-1.47,0-2.8-0.53-4-1.6c-1.2-1.07-1.8-2.64-1.8-4.73c0-1.24,0.23-2.27,0.7-3.07
	c0.47-0.8,1.09-1.47,1.86-2c0.78-0.53,1.67-0.95,2.67-1.27c1-0.31,2.01-0.57,3.03-0.77c1.02-0.2,2.03-0.39,3.03-0.57
	c1-0.18,1.88-0.4,2.63-0.67L346.04,119.38z M377.76,99.78l0.47-0.33c0-0.89,0.02-1.88,0.07-2.97s0.18-1.9,0.4-2.43
	c-0.44-0.18-0.81-0.29-1.1-0.33c-0.29-0.04-0.63-0.07-1.03-0.07c-3.25,0-6.18,2.4-8.8,7.2l-0.13-0.07c0-0.84,0.01-1.73,0.03-2.67
	c0.02-0.93,0.12-2.2,0.3-3.8c-0.49,0.09-0.96,0.17-1.4,0.23c-0.45,0.07-0.87,0.1-1.27,0.1c-0.49,0-0.96-0.03-1.4-0.1
	c-0.45-0.07-0.91-0.14-1.4-0.23c0.13,2.93,0.21,5.53,0.23,7.8c0.02,2.27,0.03,4.27,0.03,6v2.13c0,3.78-0.01,6.96-0.03,9.56
	c-0.02,2.6-0.1,4.66-0.23,6.17c0.89-0.09,1.82-0.13,2.8-0.13c0.89,0,1.78,0.04,2.67,0.13c-0.13-0.98-0.21-2.26-0.24-3.83
	c-0.02-1.58-0.03-3.85-0.03-6.83v-7.33c0-1.29,0.15-2.5,0.47-3.63c0.31-1.13,0.75-2.11,1.33-2.93c0.58-0.82,1.29-1.48,2.13-1.97
	c0.84-0.49,1.8-0.73,2.87-0.73c0.67,0,1.32,0.11,1.97,0.33C377.11,99.27,377.54,99.51,377.76,99.78z M383.13,117.38
	c0.78,1.91,1.89,3.57,3.33,4.97c1.44,1.4,3.15,2.47,5.13,3.2c1.98,0.73,4.17,1.1,6.57,1.1c2.13,0,4.19-0.38,6.16-1.13
	c1.98-0.76,3.63-1.67,4.97-2.73l0.4-3.27l-0.33-0.2c-0.58,0.67-1.26,1.29-2.03,1.87c-0.78,0.58-1.61,1.08-2.5,1.5
	c-0.89,0.42-1.8,0.76-2.73,1c-0.93,0.24-1.85,0.37-2.73,0.37c-1.87,0-3.51-0.32-4.93-0.97c-1.42-0.64-2.62-1.51-3.6-2.6
	c-0.98-1.09-1.72-2.39-2.23-3.9c-0.51-1.51-0.77-3.13-0.77-4.87v-0.87c0-0.44,0.02-0.78,0.07-1c1.47-0.04,2.92-0.09,4.37-0.13
	c1.44-0.04,2.9-0.07,4.37-0.07c2.4,0,4.77,0.02,7.13,0.07c2.36,0.05,4.73,0.09,7.13,0.13c0.04-0.44,0.08-0.88,0.1-1.3
	c0.02-0.42,0.03-0.86,0.03-1.3c0-1.87-0.28-3.62-0.83-5.27c-0.56-1.64-1.41-3.08-2.57-4.3c-1.15-1.22-2.59-2.2-4.3-2.93
	c-1.71-0.73-3.74-1.1-6.1-1.1c-4.98,0-8.76,1.56-11.36,4.67c-2.6,3.11-3.9,7.4-3.9,12.86C381.96,113.4,382.35,115.47,383.13,117.38z
	 M401.56,96.91c1.07,0.76,1.9,1.71,2.5,2.87c0.6,1.16,1,2.4,1.2,3.73c0.2,1.33,0.3,2.6,0.3,3.8c-1.42,0.05-2.89,0.09-4.4,0.13
	c-1.51,0.05-3,0.07-4.47,0.07c-1.42,0-2.88-0.02-4.37-0.07c-1.49-0.04-2.92-0.09-4.3-0.13c0.09-1.2,0.32-2.48,0.7-3.83
	c0.38-1.36,0.93-2.6,1.67-3.73c0.73-1.13,1.67-2.08,2.8-2.83c1.13-0.75,2.52-1.13,4.17-1.13C399.09,95.78,400.49,96.16,401.56,96.91
	z M66.2,86.91c0.33-0.17,0.64-0.31,0.93-0.44c0.29-0.15,0.53-0.26,0.75-0.35c0.44-0.19,0.68-0.35,0.68-0.35v-0.24
	c0,0-0.24-0.13-0.73-0.28c-0.25-0.09-0.52-0.15-0.88-0.19c-0.35-0.04-0.76-0.09-1.21-0.04c-0.22,0.02-0.46,0.04-0.7,0.06
	c-0.23,0.05-0.48,0.1-0.73,0.17c-0.51,0.11-1.01,0.36-1.51,0.64c-0.48,0.31-0.94,0.68-1.34,1.13c-0.4,0.44-0.78,0.91-1.11,1.4
	c-0.35,0.48-0.62,1-0.88,1.51c-0.22,0.52-0.45,1.03-0.57,1.55c-0.16,0.51-0.26,1.01-0.33,1.48c-0.1,0.47-0.09,0.93-0.14,1.34
	c-0.03,0.41-0.01,0.8-0.02,1.13c-0.01,0.34,0.02,0.62,0.05,0.85c0.04,0.47,0.07,0.74,0.07,0.74l0.24,0.01c0,0,0.04-0.27,0.12-0.73
	c0.07-0.47,0.2-1.11,0.4-1.86c0.02-0.05,0.03-0.1,0.05-0.15c0.14,0.35,0.35,0.65,0.65,0.86c1.24,0.85,3.4-0.14,4.81-2.2
	c1.42-2.07,1.56-4.43,0.32-5.29c-0.06-0.04-0.12-0.05-0.18-0.08c0.07-0.04,0.15-0.09,0.22-0.13C65.53,87.26,65.87,87.06,66.2,86.91z
	 M59.9,69.45c2.09,0.77,2.39-4.3,7.22-11.05c4.82-6.75,7.88-6.59,7.88-6.59s13.18-17.36,14.79-28.13c0.35-2.36,2.02-4.82,1.45-6.27
	c-1.52-3.81-7.02-2.21-12.7-0.32c-7.23,2.41-15.75,28.29-15.75,28.29s-4.75,16.87-4.8,22.52C57.97,69.07,59.39,69.27,59.9,69.45z
	 M16.59,28.07c3.65,3.13,7.82,19.3,10.95,22.43c3.13,3.13,5.14,6.37,6,8.35c2.61,6,8.09,8.87,8.09,8.87s-2.68-19.17-7.3-29.21
	c-8-17.39-13.21-19.13-19.82-18.26C14.51,20.24,12.94,24.94,16.59,28.07z M34.44,86.59c-0.89,0.2-1.26,1.97-0.81,3.96
	c0.45,1.99,1.53,3.44,2.43,3.24c0.25-0.06,0.46-0.25,0.62-0.53c0,0.03,0.01,0.06,0.01,0.09c0.03,0.53,0.08,0.98,0.08,1.31
	c0.02,0.33,0.04,0.52,0.04,0.52s0.1-0.17,0.24-0.46c0.15-0.29,0.32-0.74,0.47-1.29c0.14-0.55,0.26-1.21,0.27-1.93
	c0.04-0.72-0.07-1.49-0.21-2.25c-0.11-0.38-0.2-0.75-0.35-1.11c-0.11-0.37-0.32-0.7-0.49-1.03c-0.39-0.64-0.86-1.18-1.36-1.53
	c-0.5-0.36-0.99-0.51-1.32-0.57c-0.35-0.03-0.53-0.03-0.53-0.03s0.16,0.12,0.41,0.3c0.25,0.2,0.55,0.5,0.84,0.91
	c0.11,0.17,0.22,0.35,0.32,0.54C34.89,86.59,34.66,86.54,34.44,86.59z M40,116.19c-0.29-0.18-0.47-0.27-0.47-0.27
	s0.01,0.2,0.06,0.54c0.04,0.33,0.16,0.8,0.4,1.34c0.25,0.53,0.59,1.15,1.22,1.69c0.31,0.26,0.67,0.53,1.11,0.69
	c0.24,0.11,0.49,0.18,0.76,0.23c0.2,1.14,0.45,2.93,0.11,3.14c-0.51,0.32-2.66-0.78-2.66-0.78s1.8,2.31,3.66,2.35
	c2.08,0.06,5.97-1.1,4.48-1.07c-1.44,0.04-3.35-0.04-3.65-0.37c-0.19-0.21-0.43-1.95-0.64-3.22c0.66-0.07,1.26-0.26,1.75-0.51
	c0.67-0.33,1.2-0.73,1.61-1.12c0.83-0.76,1.2-1.48,1.2-1.48s-0.21,0-0.54,0.03c-0.33,0.04-0.8,0.08-1.31,0.19
	c-0.53,0.08-1.1,0.21-1.67,0.31c-0.29,0.05-0.57,0.09-0.84,0.12c-0.27,0.01-0.52,0.05-0.76,0.02c-0.12,0.01-0.23-0.01-0.34-0.03
	c-0.11-0.01-0.23-0.03-0.33-0.07c-0.22-0.04-0.45-0.14-0.68-0.24c-0.47-0.19-0.92-0.53-1.37-0.78
	C40.68,116.63,40.28,116.39,40,116.19z"/>
</svg>
